<?xml version="1.0" standalone="no"?>
<!DOCTYPE svg PUBLIC "-//W3C//DTD SVG 20010904//EN"
 "http://www.w3.org/TR/2001/REC-SVG-20010904/DTD/svg10.dtd">
<svg version="1.0" xmlns="http://www.w3.org/2000/svg"
 width="480.000000pt" height="480.000000pt" viewBox="0 0 480.000000 480.000000"
 preserveAspectRatio="xMidYMid meet">

<g transform="translate(0.000000,480.000000) scale(0.100000,-0.100000)"
fill="#000000" stroke="none">
<path d="M2864 4427 c-268 -243 -278 -247 -420 -164 -47 28 -87 45 -96 42 -15
-6 -31 -42 -58 -127 -13 -44 -46 -60 -67 -32 -7 10 -13 25 -13 35 0 28 -49
129 -62 129 -7 0 -51 -23 -98 -50 -47 -28 -95 -50 -108 -50 -48 0 -126 55
-292 204 -52 47 -98 86 -101 86 -13 0 -19 -51 -13 -107 4 -32 27 -114 51 -183
25 -69 58 -166 74 -216 l30 -90 -36 -64 c-39 -69 -97 -234 -113 -320 -6 -30
-16 -127 -22 -216 -18 -239 8 -388 101 -578 l34 -70 8 53 c20 143 118 244 261
270 140 26 166 11 166 -96 0 -69 23 -138 51 -153 10 -6 58 -10 108 -10 79 0
93 3 116 23 29 25 44 77 45 152 0 68 20 95 69 95 188 0 324 -102 354 -266 l13
-67 46 99 c75 160 88 225 88 449 0 148 -4 215 -20 296 -29 154 -71 273 -128
363 -28 45 -36 7 66 306 60 175 81 275 65 317 -8 21 -14 18 -99 -60z m-1175
-120 c138 -125 235 -170 310 -146 20 7 56 25 80 42 33 22 45 26 51 17 4 -7 23
-70 41 -141 33 -130 63 -190 88 -174 22 13 57 104 81 210 13 55 26 104 30 108
4 5 24 -3 44 -17 57 -38 120 -59 158 -52 52 10 149 72 238 152 44 41 85 74 91
74 11 0 4 -82 -13 -140 -5 -19 -16 -61 -24 -93 -7 -32 -30 -100 -49 -151 l-35
-93 36 -79 c49 -104 71 -171 95 -279 23 -103 38 -335 22 -335 -6 0 -22 17 -37
38 -56 82 -123 128 -228 157 -31 8 -63 24 -70 34 -11 15 -23 18 -63 15 -67 -5
-97 -13 -117 -31 -25 -23 -22 -43 6 -43 67 0 101 -41 50 -60 -40 -16 -136 -12
-162 6 -33 23 -29 66 9 104 29 28 30 32 17 53 -9 12 -33 28 -54 36 -35 12 -43
12 -79 -5 -54 -26 -59 -59 -14 -96 29 -25 32 -31 23 -55 -13 -37 -47 -53 -115
-53 -41 0 -63 5 -80 19 -30 25 -17 40 40 48 83 11 36 61 -70 74 -61 7 -75 7
-82 -6 -11 -20 -54 -41 -97 -48 -58 -9 -128 -56 -182 -121 -28 -33 -55 -62
-59 -64 -12 -5 -11 105 2 213 15 128 50 254 104 374 l46 103 -25 67 c-38 99
-65 188 -80 266 -25 123 -27 145 -17 145 6 0 46 -33 90 -73z m241 -967 c0 -26
47 -71 100 -94 l57 -26 7 -65 c4 -36 9 -72 12 -80 5 -11 -1 -15 -25 -15 -30 0
-67 -7 -184 -36 -81 -20 -158 -72 -213 -144 -26 -33 -51 -60 -55 -60 -16 0
-39 106 -39 180 0 139 37 215 135 278 82 52 205 90 205 62z m718 1 c9 -5 42
-21 73 -35 137 -63 179 -123 186 -265 5 -89 -9 -197 -28 -216 -8 -7 -16 -3
-27 14 -44 62 -115 129 -165 154 -58 29 -156 55 -245 64 -48 5 -53 8 -48 27 2
11 8 47 11 78 l7 57 62 29 c45 21 69 40 85 66 23 37 52 46 89 27z m-443 -185
c-10 -71 -24 -106 -35 -86 -11 20 -31 130 -25 139 2 4 18 6 35 3 l32 -4 -7
-52z m146 8 c-6 -22 -11 -51 -11 -66 0 -15 -4 -29 -9 -33 -15 -9 -30 27 -37
88 -7 55 -7 55 22 59 41 5 47 -4 35 -48z m-49 -265 l23 -30 22 28 23 28 1 -35
c3 -64 -2 -105 -17 -127 -13 -21 -22 -23 -103 -23 -71 0 -91 3 -103 18 -20 22
-31 85 -23 124 l7 30 22 -21 22 -21 22 30 c31 41 73 41 104 -1z"/>
<path d="M1862 3797 c-17 -22 -23 -69 -12 -101 15 -44 62 -72 159 -91 47 -10
96 -24 109 -33 20 -13 25 -13 33 -1 25 39 -7 113 -65 149 -19 11 -60 25 -92
31 -33 6 -73 21 -90 35 -24 18 -34 21 -42 11z m213 -98 c8 -8 19 -30 25 -48
l9 -33 -42 7 c-106 17 -157 43 -157 81 0 14 11 16 75 12 49 -2 80 -9 90 -19z"/>
<path d="M2596 3780 c-16 -10 -55 -23 -88 -29 -33 -6 -75 -20 -95 -32 -59 -37
-89 -108 -64 -148 8 -12 13 -12 34 1 13 9 53 22 88 29 155 29 216 89 177 174
-13 29 -14 29 -52 5z m-6 -74 c0 -32 -32 -55 -99 -70 -89 -20 -91 -20 -91 7 0
31 26 65 53 69 62 9 137 6 137 -6z"/>
<path d="M897 2903 c-18 -17 -5 -33 26 -33 52 0 102 -41 116 -94 14 -58 15
-935 1 -987 -13 -47 -29 -59 -93 -74 -45 -10 -52 -15 -55 -38 l-3 -27 429 0
429 0 11 94 c18 145 16 203 -7 209 -15 3 -24 -6 -42 -46 -67 -142 -170 -205
-317 -195 -84 6 -129 29 -148 73 -21 51 -21 969 0 1020 16 36 59 65 101 65 18
0 25 5 25 20 0 19 -7 20 -233 20 -129 0 -237 -3 -240 -7z"/>
<path d="M2680 2513 c-42 -13 -67 -29 -106 -69 l-52 -53 -6 31 c-3 17 -6 41
-6 54 0 30 -16 31 -112 4 -87 -24 -98 -25 -98 -5 0 13 -21 15 -130 15 l-130 0
0 -25 c0 -19 5 -25 23 -25 28 0 41 -9 56 -37 18 -35 13 -91 -18 -198 -16 -55
-46 -155 -65 -222 -20 -67 -36 -125 -36 -130 0 -29 -29 43 -94 237 -81 240
-92 302 -58 333 10 10 31 17 45 17 22 0 27 5 27 25 l0 25 -172 -2 c-164 -3
-173 -4 -173 -23 0 -12 9 -21 25 -25 31 -7 50 -44 119 -240 28 -80 60 -167 70
-195 11 -27 44 -121 75 -207 l57 -156 -19 -69 c-24 -84 -59 -160 -78 -167 -8
-3 -30 5 -49 18 -43 29 -106 42 -134 26 -33 -17 -29 -81 8 -122 25 -29 35 -32
95 -36 64 -4 67 -3 99 29 37 37 77 126 143 319 24 69 64 184 89 255 25 72 54
155 64 185 53 157 111 314 120 323 16 16 58 -8 78 -45 16 -29 18 -65 21 -289
4 -321 -5 -364 -86 -379 -15 -3 -28 -13 -30 -23 -3 -16 11 -17 183 -17 171 0
186 1 183 17 -2 10 -17 20 -36 24 -19 4 -39 12 -45 18 -19 19 -25 127 -18 344
6 196 8 216 30 257 29 56 60 85 106 100 46 15 96 6 123 -23 46 -49 52 -91 52
-377 0 -253 -1 -269 -20 -293 -13 -16 -33 -27 -53 -29 -21 -2 -33 -9 -35 -20
-3 -17 15 -18 273 -18 258 0 276 1 273 18 -2 9 -14 19 -28 20 -72 10 -67 54
20 187 39 58 76 105 83 103 7 -3 42 -49 79 -104 86 -127 91 -184 16 -184 -21
0 -28 -5 -28 -20 0 -19 7 -20 160 -20 153 0 160 1 160 20 0 13 -7 20 -18 20
-17 0 -52 29 -52 42 0 4 -52 90 -116 193 -63 103 -113 193 -111 199 10 26 152
224 185 259 20 21 50 41 67 45 23 6 31 15 33 35 l3 27 -141 0 -141 0 3 -27 c2
-18 10 -29 23 -31 55 -11 61 -66 14 -133 -16 -24 -42 -61 -56 -82 -31 -45 -30
-46 -97 67 -56 93 -58 124 -8 145 23 11 32 21 32 38 l0 23 -160 0 c-159 0
-160 0 -160 -22 0 -15 10 -29 28 -39 15 -8 45 -44 66 -80 22 -35 73 -115 113
-177 l74 -113 -44 -62 c-24 -34 -70 -100 -102 -147 -85 -125 -103 -142 -145
-138 l-35 3 -5 310 c-6 329 -8 344 -59 417 -28 41 -89 77 -143 83 -18 2 -58
-3 -88 -12z"/>
</g>
</svg>
